<svg width="17" height="18" viewBox="0 0 17 18" fill="none" xmlns="http://www.w3.org/2000/svg">
<path fill-rule="evenodd" clip-rule="evenodd" d="M11.9976 4.91133C11.1023 4.02509 9.90749 3.54228 8.67124 3.56212C6.40905 3.56212 4.48777 5.14611 3.80273 7.27904C3.43951 8.39676 3.43951 9.60713 3.80273 10.7249H3.80591C4.49413 12.8545 6.41222 14.4385 8.67443 14.4385C9.84218 14.4385 10.8447 14.1285 11.6217 13.5809V13.5787C12.5361 12.9504 13.1606 11.9616 13.355 10.8439H8.67125V7.3783H16.8502C16.9522 7.98016 17 8.59524 17 9.20701C17 11.9443 16.0574 14.2586 14.4174 15.826L14.4192 15.8274C12.9822 17.203 11.0099 18 8.67124 18C5.39264 18 2.39442 16.082 0.922396 13.043C-0.307469 10.5 -0.307466 7.50395 0.922405 4.96096C2.39443 1.91862 5.39264 0.000606479 8.67124 0.000606479C10.8251 -0.0258486 12.9057 0.814101 14.4733 2.34188L11.9976 4.91133Z" fill="white"/>
</svg>
