<svg width="18" height="19" viewBox="0 0 18 19" fill="none" xmlns="http://www.w3.org/2000/svg">
<path d="M8.818 2.10805C11.1741 2.10805 11.4531 2.11848 12.3796 2.16018C13.2408 2.19841 13.7058 2.34438 14.0158 2.46602C14.4257 2.6259 14.7219 2.82052 15.0285 3.12984C15.3385 3.44263 15.5279 3.73805 15.6864 4.15163C15.8069 4.46442 15.9516 4.93708 15.9895 5.80247C16.0308 6.74085 16.0412 7.02236 16.0412 9.39611C16.0412 11.7733 16.0308 12.0548 15.9895 12.9897C15.9516 13.8586 15.8069 14.3278 15.6864 14.6406C15.5279 15.0542 15.335 15.3531 15.0285 15.6624C14.7185 15.9752 14.4257 16.1663 14.0158 16.3262C13.7058 16.4478 13.2373 16.5938 12.3796 16.632C11.4496 16.6737 11.1706 16.6842 8.818 16.6842C6.46194 16.6842 6.18293 16.6737 5.25635 16.632C4.39522 16.5938 3.93021 16.4478 3.6202 16.3262C3.2103 16.1663 2.91407 15.9717 2.60751 15.6624C2.2975 15.3496 2.10805 15.0542 1.9496 14.6406C1.82905 14.3278 1.68438 13.8551 1.64649 12.9897C1.60515 12.0514 1.59482 11.7699 1.59482 9.39611C1.59482 7.01889 1.60515 6.73737 1.64649 5.80247C1.68438 4.93361 1.82905 4.46442 1.9496 4.15163C2.10805 3.73805 2.30095 3.43915 2.60751 3.12984C2.91752 2.81705 3.2103 2.6259 3.6202 2.46602C3.93021 2.34438 4.39866 2.19841 5.25635 2.16018C6.18293 2.11848 6.46194 2.10805 8.818 2.10805ZM8.818 0.505859C6.42405 0.505859 6.12437 0.516286 5.18402 0.557991C4.24711 0.599697 3.60298 0.752618 3.04496 0.971572C2.46284 1.20095 1.97027 1.50332 1.48115 2.00031C0.98858 2.49383 0.688906 2.99082 0.461567 3.5747C0.244562 4.1412 0.0930023 4.78764 0.051668 5.73296C0.0103336 6.68524 0 6.98761 0 9.40306C0 11.8185 0.0103336 12.1209 0.051668 13.0697C0.0930023 14.015 0.244562 14.6649 0.461567 15.2279C0.688906 15.8153 0.98858 16.3123 1.48115 16.8058C1.97027 17.2993 2.46284 17.6052 3.04152 17.8311C3.60298 18.05 4.24366 18.2029 5.18057 18.2447C6.12093 18.2864 6.4206 18.2968 8.81455 18.2968C11.2085 18.2968 11.5082 18.2864 12.4485 18.2447C13.3854 18.2029 14.0296 18.05 14.5876 17.8311C15.1663 17.6052 15.6588 17.2993 16.148 16.8058C16.6371 16.3123 16.9402 15.8153 17.1641 15.2314C17.3811 14.6649 17.5327 14.0185 17.574 13.0732C17.6153 12.1244 17.6257 11.822 17.6257 9.40654C17.6257 6.99108 17.6153 6.68872 17.574 5.73992C17.5327 4.79459 17.3811 4.14468 17.1641 3.58165C16.9471 2.99082 16.6474 2.49383 16.1548 2.00031C15.6657 1.50679 15.1732 1.20095 14.5945 0.975048C14.033 0.756093 13.3923 0.603173 12.4554 0.561467C11.5116 0.516286 11.2119 0.505859 8.818 0.505859Z" fill="white"/>
<path d="M8.93874 4.71899C6.43801 4.71899 4.40918 6.76605 4.40918 9.28924C4.40918 11.8124 6.43801 13.8595 8.93874 13.8595C11.4395 13.8595 13.4683 11.8124 13.4683 9.28924C13.4683 6.76605 11.4395 4.71899 8.93874 4.71899ZM8.93874 12.2538C7.31636 12.2538 6.00055 10.9262 6.00055 9.28924C6.00055 7.65229 7.31636 6.32466 8.93874 6.32466C10.5611 6.32466 11.8769 7.65229 11.8769 9.28924C11.8769 10.9262 10.5611 12.2538 8.93874 12.2538Z" fill="white"/>
<path d="M14.7048 4.53865C14.7048 5.12948 14.2294 5.60562 13.6473 5.60562C13.0617 5.60562 12.5898 5.126 12.5898 4.53865C12.5898 3.94782 13.0652 3.47168 13.6473 3.47168C14.2294 3.47168 14.7048 3.9513 14.7048 4.53865Z" fill="white"/>
</svg>
