<svg width="18" height="14" viewBox="0 0 18 14" fill="none" xmlns="http://www.w3.org/2000/svg">
<path d="M5.66262 14C12.4534 14 16.1687 8.61323 16.1687 3.94326C16.1687 3.79182 16.1652 3.63702 16.1582 3.48558C16.8809 2.98526 17.5046 2.36554 18 1.65555C17.3269 1.94222 16.6122 2.12944 15.8804 2.21082C16.651 1.7687 17.2279 1.07416 17.5043 0.255939C16.7794 0.667158 15.9867 0.957238 15.1601 1.11374C14.6031 0.547267 13.8667 0.172193 13.0648 0.0465095C12.2628 -0.0791738 11.4399 0.0515345 10.7233 0.418426C10.0067 0.785317 9.43635 1.36796 9.10039 2.07626C8.76442 2.78457 8.68157 3.57909 8.86465 4.33699C7.39687 4.26648 5.96095 3.9015 4.64999 3.26571C3.33902 2.62991 2.18227 1.73749 1.25473 0.646309C0.7833 1.42434 0.639042 2.34501 0.851273 3.22119C1.0635 4.09738 1.6163 4.86333 2.3973 5.3634C1.81097 5.34558 1.23748 5.19446 0.724219 4.92255V4.96629C0.723693 5.78278 1.01857 6.57424 1.55873 7.20615C2.09889 7.83805 2.85099 8.27139 3.68719 8.43251C3.14404 8.57476 2.57399 8.59549 2.02113 8.49309C2.25709 9.19527 2.71618 9.80942 3.33433 10.2498C3.95248 10.6902 4.69884 10.9349 5.46926 10.9497C4.16132 11.9332 2.54563 12.4666 0.882422 12.4641C0.587465 12.4637 0.292799 12.4464 0 12.4123C1.68964 13.4499 3.65515 14.001 5.66262 14Z" fill="white"/>
</svg>
